<svg width="73" height="72" viewBox="0 0 73 72" fill="none" xmlns="http://www.w3.org/2000/svg">
<g clip-path="url(#clip0_1_652)">
<path d="M39.0931 14.991C39.6878 14.9084 40.1028 14.3593 40.0202 13.7646C39.9377 13.1698 39.3886 12.7549 38.7938 12.8377C38.1991 12.9202 37.7842 13.4693 37.867 14.0641C37.9495 14.6586 38.4986 15.0735 39.0931 14.991Z" fill="#E74040"/>
<path d="M20.1802 10.5603C20.7104 10.5603 21.1402 10.1304 21.1402 9.60025V6.72025C21.1402 6.19009 20.7104 5.76025 20.1802 5.76025C19.6501 5.76025 19.2202 6.19009 19.2202 6.72025V9.60025C19.2202 10.1304 19.6501 10.5603 20.1802 10.5603Z" fill="#E74040"/>
<path d="M20.1802 12.4805C19.6501 12.4805 19.2202 12.9103 19.2202 13.4405V16.3205C19.2202 16.8506 19.6501 17.2805 20.1802 17.2805C20.7104 17.2805 21.1402 16.8506 21.1402 16.3205V13.4405C21.1402 12.9103 20.7104 12.4805 20.1802 12.4805Z" fill="#E74040"/>
<path d="M15.3802 12.4801H18.2602C18.7903 12.4801 19.2202 12.0502 19.2202 11.5201C19.2202 10.9899 18.7903 10.5601 18.2602 10.5601H15.3802C14.85 10.5601 14.4202 10.9899 14.4202 11.5201C14.4202 12.0502 14.85 12.4801 15.3802 12.4801Z" fill="#E74040"/>
<path d="M22.1001 12.4801H24.9801C25.5103 12.4801 25.9401 12.0502 25.9401 11.5201C25.9401 10.9899 25.5103 10.5601 24.9801 10.5601H22.1001C21.57 10.5601 21.1401 10.9899 21.1401 11.5201C21.1401 12.0502 21.57 12.4801 22.1001 12.4801Z" fill="#E74040"/>
<path d="M58.9354 18.2402H14.065C11.0846 18.2402 8.66016 20.6647 8.66016 23.645V54.1133C8.66016 57.0946 11.0854 59.5202 14.0666 59.5202H30.4277L29.0563 64.3202H19.2202C18.69 64.3202 18.2602 64.7501 18.2602 65.2802C18.2602 65.8104 18.69 66.2402 19.2202 66.2402H54.7402C55.2708 66.2402 55.7002 65.8104 55.7002 65.2802C55.7002 64.7501 55.2708 64.3202 54.7402 64.3202H44.9042L43.5334 59.5202H58.9356C61.9159 59.5202 64.3404 57.0958 64.3404 54.1154V23.645C64.3402 20.6647 61.9157 18.2402 58.9354 18.2402ZM14.065 20.1602H58.9354C60.8573 20.1602 62.4202 21.7236 62.4202 23.645V50.8802H10.5802V23.645C10.5802 21.7236 12.1435 20.1602 14.065 20.1602ZM42.907 64.3202H31.0529L32.4245 59.5202H41.5361L42.907 64.3202ZM58.9354 57.6002H14.0666C12.1445 57.6002 10.5802 56.0359 10.5802 54.1133V52.8002H62.4202V54.1154C62.4202 56.0369 60.8573 57.6002 58.9354 57.6002Z" fill="#E74040"/>
<path d="M36.5001 56.696C37.3107 56.696 37.9679 56.0388 37.9679 55.2281C37.9679 54.4174 37.3107 53.7603 36.5001 53.7603C35.6894 53.7603 35.0322 54.4174 35.0322 55.2281C35.0322 56.0388 35.6894 56.696 36.5001 56.696Z" fill="#E74040"/>
<path d="M15.3802 33.6H17.3002V35.5199C17.3002 36.0501 17.73 36.4799 18.2602 36.4799H22.1002C22.6303 36.4799 23.0602 36.0501 23.0602 35.5199V33.6H24.9802C25.5103 33.6 25.9402 33.1701 25.9402 32.64V28.8C25.9402 28.2698 25.5103 27.84 24.9802 27.84H23.0602V25.92C23.0602 25.3898 22.6303 24.96 22.1002 24.96H18.2602C17.73 24.96 17.3002 25.3898 17.3002 25.92V27.84H15.3802C14.85 27.84 14.4202 28.2698 14.4202 28.8V32.64C14.4202 33.1701 14.85 33.6 15.3802 33.6ZM16.3402 29.76H18.2602C18.7903 29.76 19.2202 29.3301 19.2202 28.8V26.88H21.1402V28.8C21.1402 29.3301 21.57 29.76 22.1002 29.76H24.0202V31.68H22.1002C21.57 31.68 21.1402 32.1098 21.1402 32.64V34.5599H19.2202V32.64C19.2202 32.1098 18.7903 31.68 18.2602 31.68H16.3402V29.76Z" fill="#E74040"/>
<path d="M29.7801 35.5199H54.7401C55.2707 35.5199 55.7001 35.0901 55.7001 34.5599V26.8799C55.7001 26.3498 55.2707 25.9199 54.7401 25.9199H29.7801C29.2499 25.9199 28.8201 26.3498 28.8201 26.8799V34.5599C28.8201 35.0901 29.2499 35.5199 29.7801 35.5199ZM30.7401 27.8399H53.7801V33.5999H30.7401V27.8399Z" fill="#E74040"/>
<path d="M15.3801 40.3204C15.3801 40.8505 15.81 41.2803 16.3401 41.2803H56.6601C57.1908 41.2803 57.6201 40.8505 57.6201 40.3204C57.6201 39.7902 57.1908 39.3604 56.6601 39.3604H16.3401C15.81 39.3604 15.3801 39.7902 15.3801 40.3204Z" fill="#E74040"/>
<path d="M46.1001 42.2402H16.3401C15.81 42.2402 15.3801 42.6701 15.3801 43.2002C15.3801 43.7304 15.81 44.1602 16.3401 44.1602H46.1001C46.6308 44.1602 47.0601 43.7304 47.0601 43.2002C47.0601 42.6701 46.6308 42.2402 46.1001 42.2402Z" fill="#E74040"/>
<path d="M32.6601 45.1201H16.3401C15.81 45.1201 15.3801 45.55 15.3801 46.0801C15.3801 46.6103 15.81 47.0401 16.3401 47.0401H32.6601C33.1908 47.0401 33.6201 46.6103 33.6201 46.0801C33.6201 45.55 33.1908 45.1201 32.6601 45.1201Z" fill="#E74040"/>
</g>
<defs>
<clipPath id="clip0_1_652">
<rect width="55.6802" height="60.48" fill="white" transform="translate(8.66016 5.76025)"/>
</clipPath>
</defs>
</svg>
